# xmcd
#
# Track frame offsets:
#	150
#	12530
#	24937
#	40312
#	53510
#	66490
#	81272
#	88740
#	103457
#	117352
#	129565
#	143962
#	155730
#
# Disc length: 2264 seconds
#
# Revision: 1
# Processed by: cddbd v1.5.2PL0 Copyright (c) Steve Scherf et al.
# Submitted via: audiograbber 1.83.01
#
DISCID=b908d60d
DTITLE=Crowe Brothers - Regenesis
DYEAR=1999
DGENRE=Bluegrass
TTITLE0=The Engineers Don't Wave From The Trains Anymore
TTITLE1=My Little Honeysuckle Rose
TTITLE2=Grandma's Little Cabin
TTITLE3=Something In My Heart
TTITLE4=I'll Be There
TTITLE5=Sweethearts In Heaven
TTITLE6=Down The Road
TTITLE7=Two Arms To Hold Me
TTITLE8=Cruel Love
TTITLE9=Always True
TTITLE10=Will The Roses Bloom (Where She Lies Sleeping)
TTITLE11=Must You Throw Dirt In My Face
TTITLE12=Waiting For A Message
EXTD=
EXTT0=
EXTT1=
EXTT2=
EXTT3=
EXTT4=
EXTT5=
EXTT6=
EXTT7=
EXTT8=
EXTT9=
EXTT10=
EXTT11=
EXTT12=
PLAYORDER=
